
        <svg xmlns="http://www.w3.org/2000/svg" xmlns:xlink="http://www.w3.org/1999/xlink" version="1.1" width="3218.978102189781" 
        height="1388.5862057991626" viewBox="0 0 3218.978102189781 1388.5862057991626">
			
			<g transform="scale(10.94890510948905) translate(10, 10)">
				<defs id="SvgjsDefs1001"></defs><g id="SvgjsG1007" featureKey="nRdZyp-0" transform="matrix(-1.1869572642872739,0,0,1.1869572642872739,303.0199604630949,-9.93127098655912)" fill="#1a5eff"><path xmlns="http://www.w3.org/2000/svg" d="M78.201,87.271l-8.846-24.826c-0.513-1.441-2.067-2.225-3.531-1.784l-6.495,1.957c-0.931,0.281-1.609,0.992-1.892,1.85  l-2.565-7.764c0.624-0.002,1.247-0.22,1.735-0.667c1.075-0.96,1.042-2.515,0.198-3.683c-0.616-0.852-1.25-2.171-2.16-3.61  c-3.706-5.858-8.607-22.055-8.607-22.055c-0.045-0.088-0.104-0.169-0.168-0.246c-0.658-1.404-2.193-2.138-4.042-2.424  c-2.662-0.413-5.012,0.22-5.586,3.13l-4.675,28.365c-0.48,2.433-0.747,3.667-0.782,4.956c-0.129,4.67-3.379,34.923-3.379,34.923  c-0.128,1.005,0.816,2.775,2.237,2.957c1.42,0.182,2.779-1.295,2.908-2.3l10.223-37.603c0.001-0.02-0.014-0.031-0.017-0.049  c0.092-0.355,0.17-0.742,0.221-1.198l1.58-14.228c2.175,4.065,4.644,8.332,6.573,10.717c0.145,0.179,0.418,0.51,0.708,0.859  l-0.816,0.284l0.772,2.217l0.152-0.053l11.604,35.114c-0.885,0.611-1.467,1.631-1.467,2.789c0,1.873,1.518,3.391,3.391,3.391  c1.873,0,3.391-1.518,3.391-3.391c0-0.561-0.149-1.083-0.391-1.549c0.053-0.013,0.106-0.02,0.159-0.035l7.698-2.335  C77.899,90.505,78.751,88.815,78.201,87.271z"></path><circle xmlns="http://www.w3.org/2000/svg" cx="42.221" cy="15.511" r="7.144"></circle><path xmlns="http://www.w3.org/2000/svg" d="M49.063,94.18l-5.627-34.193L38.831,76.92l5.241,18.671c0.275,0.974,1.838,2.234,3.215,1.844  C48.667,97.045,49.338,95.154,49.063,94.18z"></path><path xmlns="http://www.w3.org/2000/svg" d="M32.773,40.885l0.082-0.556c0.638-4.34,1.113-7.443,1.432-9.373c-1.913,3.663-5.663,10.882-8.988,17.531  c-0.265,0.531-1.313,2.863-0.613,4.038c0.288,0.484,0.82,0.769,1.41,0.93c1.818,0.497,4.345-4.079,4.843-5.026  c0.367-0.698,0.722-1.364,1.068-2.009l0.49-2.977C32.59,42.416,32.683,41.48,32.773,40.885z"></path></g><g id="SvgjsG1008" featureKey="Q4qmbg-0" transform="matrix(4.068308310800797,0,0,4.068308310800797,-48.95267136978136,-164.3007342470043)" fill="#1a5eff"><path d="M20.677975 54.87891 c-0.705213 -1.280841 -1.672845 -1.769535 -3.042441 -1.110387 c-0.378441 0.182133 -0.6768 0.39231 -0.895077 0.630531 c-0.646833 0.777399 -0.614943 1.627659 -0.198639 2.492667 c0.138768 0.288336 0.304905 0.541305 0.507759 0.732213 c0.721311 0.806997 1.697043 0.759111 2.598093 0.325461 c1.369596 -0.659148 1.68078 -1.71891 1.030305 -3.070485 z M26.270215 57.73629 l-2.70315 1.30095 c-0.397035 -0.363795 -0.776049 -0.736263 -1.109673 -1.152771 c-0.127026 1.304058 -0.847293 2.205579 -2.000637 2.760651 c-2.577003 1.240239 -5.455905 -0.037635 -6.644106 -2.506512 c-1.370334 -2.847318 -0.067791 -5.582727 2.617338 -6.875004 c2.865339 -1.379007 5.552085 -0.408165 6.951138 2.314356 c0.13077 0.2256 0.260865 0.495915 0.416979 0.820293 c0.60711 1.26147 1.412451 2.427537 2.472111 3.338037 z M26.824067 48.949128 l2.9529 -0.52965 l1.7655 9.843 l-2.9529 0.52965 l-1.7655 -9.843 z M28.13456 47.759061 c-1.003986 0.180081 -1.839798 -0.401499 -2.019879 -1.405485 c-0.183612 -1.023672 0.40503 -1.820112 1.409016 -2.000193 c1.023672 -0.183612 1.81305 0.365658 1.996662 1.38933 c0.187143 1.043358 -0.342441 1.829205 -1.385799 2.016348 z M40.455652 51.881945 c-0.059042 -1.058357 -1.091943 -1.26114 -1.970579 -1.212124 s-1.882573 0.365427 -1.823531 1.423784 s1.091943 1.26114 1.970579 1.212124 s1.882573 -0.365427 1.823531 -1.423784 z M40.096922 59.81426 c-0.037876 -0.678946 -0.531614 -0.911807 -1.150653 -0.877273 s-1.083813 0.320867 -1.045937 0.999813 s0.531614 0.911807 1.150653 0.877273 s1.083813 -0.320867 1.045937 -0.999813 z M42.792737 59.66387 c0.118084 2.116714 -1.809831 3.105636 -3.62701 3.20701 c-1.837148 0.102488 -3.847582 -0.746852 -3.96121 -2.78369 c-0.08355 -1.497675 0.957931 -2.577364 2.337937 -2.974848 l-0.060156 -1.078326 c-0.584671 -0.067539 -1.093922 -0.21941 -1.547722 -0.454499 c-1.335861 -0.606536 -2.187062 -1.861075 -2.268384 -3.318812 c-0.153732 -2.755722 2.227817 -4.230667 4.664035 -4.366575 c1.078326 -0.060156 2.00804 0.08829 2.790256 0.465307 c0.757625 -0.422857 1.508649 -0.604972 2.367316 -0.652874 l0.778791 -0.043446 l0.134794 2.416249 l-0.439318 0.024508 l-0.439318 0.024508 c-0.138669 0.027767 -0.297307 0.056648 -0.454831 0.105498 c0.225312 0.448147 0.353007 0.941802 0.383085 1.480965 c0.119198 2.136683 -1.340435 3.620291 -3.274003 4.148812 l0.062384 1.118264 c1.359089 0.304773 2.472032 1.224212 2.553354 2.681949 z M51.718632 57.7395 c1.429413 0.297402 2.426997 -0.373473 2.724399 -1.802886 s-0.349818 -2.442504 -1.779231 -2.739906 s-2.426997 0.373473 -2.724399 1.802886 s0.349818 2.442504 1.779231 2.739906 z M51.152346 60.461259 c-3.015474 -0.627396 -4.773417 -3.076872 -4.150095 -6.072765 c0.643692 -3.093798 3.290685 -4.524645 6.227835 -3.913545 c3.035055 0.63147 4.773417 3.076872 4.150095 6.072765 c-0.639618 3.074217 -3.310266 4.520571 -6.227835 3.913545 z"></path></g>
			</g>
		</svg>
	